<?xml version="1.0" encoding="UTF-8"?>
<!DOCTYPE svg PUBLIC "-//W3C//DTD SVG 1.1//EN" "http://www.w3.org/Graphics/SVG/1.1/DTD/svg11.dtd">
<svg version="1.1" xmlns="http://www.w3.org/2000/svg" xmlns:xlink="http://www.w3.org/1999/xlink" x="0" y="0" width="800" height="600" viewBox="0, 0, 800, 600">
  <g id="レイヤー_1">
    <path d="M417.608,95.14 Q470.431,97.171 527.318,112.747 Q584.205,128.324 631.949,158.121 Q679.694,187.919 711.523,232.955 Q743.353,277.99 745.385,339.618 Q745.385,389.732 718.296,422.239 Q691.207,454.746 644.478,473.031 Q597.75,491.316 534.768,498.427 Q471.786,505.538 400,505.538 Q328.214,505.538 265.232,498.427 Q202.25,491.316 155.522,473.031 Q108.793,454.746 81.704,422.239 Q54.615,389.732 54.615,339.618 Q54.615,288.826 81.704,244.129 Q108.793,199.432 155.522,166.248 Q202.25,133.064 265.232,113.763 Q328.214,94.462 400,94.462 z M400,126.969 Q334.309,126.969 277.084,144.238 Q219.858,161.508 177.532,190.29 Q135.205,219.072 111.164,257.673 Q87.122,296.275 87.122,339.618 Q87.122,376.865 106.762,401.584 Q126.401,426.302 167.712,442.556 Q187.351,450.682 211.732,456.1 Q236.112,461.518 264.894,465.243 Q293.676,468.968 327.537,470.999 Q361.398,473.031 400,473.031 Q423.703,472.354 447.067,472.015 Q470.431,471.676 493.457,469.645 Q491.425,468.968 489.732,467.274 Q488.039,465.581 486.008,463.55 Q481.267,455.423 481.267,438.492 Q481.267,422.239 487.362,414.112 Q493.457,405.986 504.97,405.986 Q508.356,405.986 511.065,406.663 Q514.451,406.663 517.16,408.017 L517.16,416.144 Q514.451,414.79 511.742,413.435 Q509.033,412.758 505.647,412.758 Q497.52,412.758 493.457,418.853 Q488.716,424.948 488.716,437.138 Q490.748,433.075 494.811,430.366 Q498.198,428.334 502.938,428.334 Q511.742,428.334 517.16,433.752 Q521.9,439.17 521.9,450.005 Q521.9,460.164 517.16,465.581 Q515.805,466.936 515.805,466.936 Q515.805,466.936 514.451,467.613 Q523.255,466.936 523.255,466.936 Q523.255,466.936 537.477,464.904 Q534.768,462.873 534.09,459.486 Q533.413,456.1 533.413,453.391 Q533.413,446.619 536.799,441.879 Q540.185,437.815 546.281,436.461 Q540.863,435.106 537.477,431.043 Q534.768,427.657 534.768,422.239 Q534.768,414.79 539.508,410.049 Q544.926,405.986 553.73,405.986 Q562.534,405.986 567.952,410.049 Q572.692,414.79 572.692,422.239 Q572.692,427.657 569.983,431.043 Q566.597,435.106 561.179,436.461 Q567.274,437.815 570.661,441.879 Q574.047,446.619 574.047,452.714 Q574.047,456.777 574.047,456.777 Q574.047,456.777 573.37,459.486 Q578.11,458.809 578.11,458.471 Q578.11,458.132 587.591,456.1 Q586.237,452.037 585.898,447.635 Q585.56,443.233 585.56,438.492 Q585.56,422.239 591.655,414.112 Q597.75,405.986 609.262,405.986 Q612.648,405.986 616.035,406.663 Q618.744,406.663 622.13,408.017 L622.13,416.144 Q619.421,414.79 616.035,413.435 Q613.326,412.758 609.94,412.758 Q601.813,412.758 597.75,418.853 Q593.686,424.948 593.686,437.138 Q595.718,433.075 599.104,430.366 Q602.49,428.334 607.231,428.334 Q616.712,428.334 621.452,433.752 Q623.484,436.461 624.839,438.831 Q626.193,441.201 626.193,445.265 L632.288,442.556 Q654.636,433.752 676.646,418.514 Q698.656,403.277 706.105,378.219 Q702.719,378.219 702.719,378.219 Q702.719,378.219 698.656,377.542 Q694.593,376.865 689.852,375.511 L689.852,366.707 Q694.593,369.416 698.656,370.093 Q702.719,371.447 706.783,371.447 L708.814,371.447 Q710.846,365.352 711.862,359.934 Q712.878,354.517 712.878,347.744 Q710.169,347.067 710.169,347.067 Q710.169,347.067 707.46,347.067 L700.688,347.067 L700.688,340.295 L707.46,340.295 Q710.169,339.618 710.169,339.618 Q710.169,339.618 712.878,338.94 Q712.878,329.459 712.878,329.459 Q712.878,329.459 711.523,320.655 Q710.169,319.978 710.169,320.317 Q710.169,320.655 708.137,319.978 Q704.074,319.978 700.688,321.333 Q696.624,322.01 691.884,323.364 L691.884,315.915 Q697.302,314.56 701.365,313.883 Q704.751,313.206 708.137,313.206 L710.169,313.206 Q706.105,289.503 694.254,267.155 Q682.403,244.806 665.472,227.198 L665.472,277.313 L678.339,277.313 L678.339,284.762 L643.801,284.762 L643.801,277.313 L656.668,277.313 L656.668,229.907 L641.092,237.357 L641.092,229.23 L656.668,221.781 L659.377,221.781 Q651.25,212.299 640.753,204.173 Q630.256,196.046 620.098,189.274 Q617.389,191.305 613.664,192.321 Q609.94,193.337 606.553,193.337 Q595.718,193.337 590.3,185.21 Q588.268,181.824 587.253,177.422 Q586.237,173.02 586.237,168.957 L566.597,160.153 Q565.92,160.83 565.92,160.83 Q565.92,160.83 563.888,162.862 Q561.857,165.571 557.116,170.311 Q552.376,175.052 543.572,185.21 L572.692,185.21 L572.692,191.983 L534.09,191.983 L534.09,185.21 Q542.217,176.407 547.635,170.311 Q553.73,163.539 556.439,160.83 Q557.793,158.799 557.793,158.799 Q557.793,158.799 559.148,156.767 Q544.249,150.672 528.334,145.931 Q512.419,141.191 496.166,137.805 Q494.811,139.159 494.811,139.159 Q494.811,139.159 493.457,141.191 Q488.716,147.286 488.716,158.799 Q490.748,154.735 494.811,152.704 Q498.198,149.995 502.938,149.995 Q511.742,149.995 517.16,156.09 Q521.9,161.508 521.9,171.666 Q521.9,181.824 517.16,187.919 Q511.742,193.337 502.261,193.337 Q491.425,193.337 486.008,185.21 Q481.267,177.761 481.267,160.83 Q481.267,144.577 487.362,136.45 L487.362,135.773 Q466.368,131.032 444.358,129.339 Q422.348,127.646 400,126.969 z M519.869,311.174 L519.869,377.542 L511.742,377.542 L511.742,371.447 Q509.71,374.833 506.324,376.865 Q503.615,378.897 498.875,378.897 Q490.748,378.897 485.33,372.124 Q480.59,365.352 480.59,353.839 Q480.59,341.649 485.33,335.554 Q490.748,328.782 498.875,328.782 Q503.615,328.782 507.001,330.814 Q509.71,332.168 511.742,336.232 L511.742,311.174 z M500.229,335.554 Q494.811,335.554 492.103,340.295 Q488.716,344.358 488.716,353.839 Q488.716,362.643 492.103,367.384 Q494.811,372.124 500.229,372.124 Q505.647,372.124 509.033,367.384 Q511.742,362.643 511.742,353.839 Q511.742,344.358 509.033,340.295 Q505.647,335.554 500.229,335.554 z M557.116,313.206 Q560.502,313.206 563.888,313.883 Q566.597,314.56 569.306,315.238 L569.306,323.364 Q567.274,322.01 563.888,321.333 Q561.179,319.978 557.793,319.978 Q549.667,319.978 545.603,326.073 Q540.863,332.168 540.863,344.358 Q542.894,340.295 546.958,337.586 Q550.344,335.554 555.084,335.554 Q563.888,335.554 569.306,340.972 Q574.047,347.067 574.047,357.225 Q574.047,367.384 569.306,372.802 Q563.888,378.897 554.407,378.897 Q543.572,378.897 538.154,370.77 Q533.413,362.643 533.413,345.713 Q533.413,330.137 539.508,321.333 Q545.603,313.206 557.116,313.206 z M554.407,342.327 Q548.989,342.327 545.603,346.39 Q542.894,350.453 542.894,357.225 Q542.894,363.998 545.603,368.061 Q548.989,372.124 554.407,372.124 Q559.825,372.124 563.211,368.061 Q565.92,364.675 565.92,357.225 Q565.92,349.776 563.211,345.713 Q559.825,342.327 554.407,342.327 z M661.409,313.206 Q664.795,313.206 668.181,313.883 Q670.89,314.56 674.276,315.238 L674.276,323.364 Q671.567,322.01 668.181,321.333 Q665.472,319.978 662.086,319.978 Q653.959,319.978 649.896,326.073 Q645.833,332.168 645.833,344.358 Q647.864,340.295 651.25,337.586 Q654.636,335.554 659.377,335.554 Q668.858,335.554 673.599,340.972 Q678.339,347.067 678.339,357.225 Q678.339,367.384 673.599,372.802 Q668.181,378.897 658.7,378.897 Q647.864,378.897 643.124,370.77 Q637.706,362.643 637.706,345.713 Q637.706,330.137 643.801,321.333 Q649.896,313.206 661.409,313.206 z M658.7,342.327 Q653.282,342.327 649.896,346.39 Q647.187,350.453 647.187,357.225 Q647.187,363.998 649.896,368.061 Q653.282,372.124 658.7,372.124 Q664.118,372.124 667.504,368.061 Q670.213,364.675 670.213,357.225 Q670.213,349.776 667.504,345.713 Q664.118,342.327 658.7,342.327 z M624.839,311.174 L624.839,317.946 L616.035,317.946 Q611.971,317.946 609.94,319.978 Q608.585,321.333 608.585,326.073 L608.585,330.137 L624.839,330.137 L624.839,336.232 L608.585,336.232 L608.585,377.542 L600.458,377.542 L600.458,336.232 L588.268,336.232 L588.268,330.137 L600.458,330.137 L600.458,326.75 Q600.458,318.624 604.522,315.238 Q607.908,311.174 615.357,311.174 z M609.262,220.426 Q612.648,220.426 616.035,221.103 Q618.744,221.781 622.13,223.135 L622.13,230.584 Q619.421,229.23 616.035,228.553 Q613.326,227.876 609.94,227.876 Q601.813,227.876 597.75,233.971 Q593.686,240.066 593.686,251.578 Q595.718,247.515 599.104,245.483 Q602.49,242.775 607.231,242.775 Q616.712,242.775 621.452,248.87 Q626.193,254.287 626.193,264.446 Q626.193,274.604 621.452,280.022 Q616.035,286.117 606.553,286.117 Q595.718,286.117 590.3,277.99 Q585.56,269.863 585.56,252.933 Q585.56,237.357 591.655,228.553 Q597.75,220.426 609.262,220.426 z M606.553,249.547 Q601.136,249.547 597.75,253.61 Q595.041,257.673 595.041,264.446 Q595.041,271.218 597.75,275.281 Q601.136,279.345 606.553,279.345 Q611.971,279.345 615.357,275.281 Q618.066,271.895 618.066,264.446 Q618.066,256.996 615.357,253.61 Q611.971,249.547 606.553,249.547 z M521.223,221.781 L521.223,225.167 L498.875,284.762 L489.394,284.762 L511.742,228.553 L481.267,228.553 L481.267,221.781 z M567.274,221.781 L567.274,262.414 L575.401,262.414 L575.401,269.863 L567.274,269.863 L567.274,284.762 L558.471,284.762 L558.471,269.863 L532.059,269.863 L532.059,261.737 L557.116,221.781 z M558.471,229.23 L538.831,262.414 L558.471,262.414 z M502.261,435.106 Q496.843,435.106 493.457,439.17 Q490.748,442.556 490.748,450.005 Q490.748,456.777 493.457,460.841 Q496.843,464.227 502.261,464.227 Q507.679,464.227 511.065,460.841 Q513.774,456.777 513.774,450.005 Q513.774,442.556 511.065,438.492 Q507.679,435.106 502.261,435.106 z M553.73,439.847 Q548.312,439.847 544.926,443.233 Q541.54,446.619 541.54,452.037 Q541.54,458.132 544.926,461.518 Q546.958,462.873 546.958,462.873 Q546.958,462.873 548.989,463.55 Q552.376,462.873 552.376,462.873 Q552.376,462.873 562.534,461.518 Q564.566,459.486 564.904,457.116 Q565.243,454.746 565.92,452.037 Q565.92,446.619 562.534,443.233 Q559.148,439.847 553.73,439.847 z M606.553,435.106 Q601.136,435.106 597.75,439.17 Q595.041,442.556 595.041,450.005 Q595.041,452.714 595.041,452.714 Q595.041,452.714 595.718,454.069 Q603.845,452.714 603.845,452.376 Q603.845,452.037 618.066,447.974 Q618.066,445.265 617.389,442.894 Q616.712,440.524 615.357,438.492 Q611.971,435.106 606.553,435.106 z M553.73,412.081 Q548.312,412.081 545.603,414.79 Q542.894,417.498 542.894,422.916 Q542.894,427.657 545.603,430.366 Q548.312,433.075 553.73,433.075 Q559.148,433.075 561.857,430.366 Q564.566,427.657 564.566,422.916 Q564.566,417.498 561.857,414.79 Q559.148,412.081 553.73,412.081 z M595.041,173.698 Q595.041,176.407 596.057,178.438 Q597.072,180.47 597.75,182.502 Q601.136,186.565 606.553,186.565 Q608.585,186.565 610.278,185.888 Q611.971,185.21 613.326,184.533 Q607.908,181.147 607.908,181.147 Q607.908,181.147 595.041,173.698 z M502.261,156.767 Q496.843,156.767 493.457,160.83 Q490.748,164.894 490.748,171.666 Q490.748,178.438 493.457,182.502 Q496.843,186.565 502.261,186.565 Q507.679,186.565 511.065,183.179 Q513.774,179.115 513.774,171.666 Q513.774,164.216 511.065,160.83 Q507.679,156.767 502.261,156.767 z" fill="#5856D6"/>
  </g>
</svg>
